# xmcd
#
# Track frame offsets:
#	150
#	15475
#	21587
#	32537
#	36562
#	48700
#	56912
#	67462
#	74875
#	84100
#	92612
#	104525
#	118925
#	128512
#	138812
#	144787
#	156737
#	162150
#	168587
#	179025
#	185875
#	190375
#	204287
#	211037
#
# Disc length: 2957 seconds
#
# Revision: 1
# Processed by: cddbd v1.5.1PL0 Copyright (c) Steve Scherf et al.
# Submitted via: CDex 1.50Beta5
#
DISCID=710b8b18
DTITLE=ビデオ・サントラ - ガラスの仮面〜千の仮面を持つ少女〜オリジナル・サウンドトラック
DYEAR=1999
DGENRE=
TTITLE0=千の仮面を持つ少女
TTITLE1=ダイスキな事
TTITLE2=素晴らしきライバル
TTITLE3=あこがれ
TTITLE4=やさしい人
TTITLE5=ある企て
TTITLE6=迷夢
TTITLE7=涙は雨に流されて
TTITLE8=落胆の夜
TTITLE9=パントマイム
TTITLE10=冷たさに隠した優しさ
TTITLE11=ついに見つけた・・・
TTITLE12=静かな戦い
TTITLE13=活発な芽
TTITLE14=見失った決意
TTITLE15=野心家の陰り
TTITLE16=夢を祈る朝
TTITLE17=執念
TTITLE18=ひたむきな想い
TTITLE19=運命的な出逢い
TTITLE20=明日への誓い
TTITLE21=くじけないで
TTITLE22=開眼!
TTITLE23=約束
EXTD=
EXTT0=
EXTT1=
EXTT2=
EXTT3=
EXTT4=
EXTT5=
EXTT6=
EXTT7=
EXTT8=
EXTT9=
EXTT10=
EXTT11=
EXTT12=
EXTT13=
EXTT14=
EXTT15=
EXTT16=
EXTT17=
EXTT18=
EXTT19=
EXTT20=
EXTT21=
EXTT22=
EXTT23=
PLAYORDER=
